<svg viewBox="0 0 800 600" xmlns="http://www.w3.org/2000/svg" fill="none" stroke="#2f6fd6" stroke-width="6" stroke-linecap="round" stroke-linejoin="round">

  <!-- base -->
  <path d="M330 578 L470 578 L448 548 L352 548 Z" fill="#2f6fd6" stroke="none"/>
  <!-- pole -->
  <line x1="400" y1="548" x2="400" y2="160"/>
  <!-- pivot -->
  <circle cx="400" cy="150" r="12" fill="#2f6fd6" stroke="none"/>
  <!-- beam -->
  <line x1="170" y1="132" x2="630" y2="132"/>
  <line x1="400" y1="150" x2="400" y2="132"/>

  <!-- left strings -->
  <line x1="170" y1="132" x2="120" y2="270"/>
  <line x1="170" y1="132" x2="220" y2="270"/>
  <!-- left pan -->
  <path d="M110 270 Q170 320 230 270"/>

  <!-- right strings -->
  <line x1="630" y1="132" x2="580" y2="270"/>
  <line x1="630" y1="132" x2="680" y2="270"/>
  <!-- right pan -->
  <path d="M570 270 Q630 320 690 270"/>

  <!-- brain icon, sitting above left pan -->
  <g transform="translate(170,190)" stroke-width="5">
    <path d="M-45 10
             C-55 -20 -35 -45 -8 -42
             C0 -52 14 -52 22 -42
             C48 -46 66 -22 58 4
             C68 14 66 34 52 40
             C50 54 34 62 20 56
             C10 64 -8 64 -18 56
             C-32 62 -46 52 -46 38
             C-58 30 -58 16 -45 10 Z"
          fill="#eaf2fd"/>
    <path d="M-2 -40 C-2 -20 -10 -10 -6 8 C-2 22 -14 28 -12 42"/>
    <path d="M14 -38 C18 -20 10 -6 16 6 C22 18 14 30 20 44"/>
    <path d="M-30 -18 C-22 -10 -24 0 -30 6"/>
    <path d="M34 -14 C28 -6 32 4 40 8"/>
  </g>

  <!-- books icon, sitting above right pan -->
  <g transform="translate(630,205)" stroke-width="5">
    <rect x="-55" y="18" width="110" height="18" rx="3" fill="#eaf2fd"/>
    <rect x="-46" y="-2" width="92" height="18" rx="3" fill="#eaf2fd"/>
    <rect x="-38" y="-24" width="76" height="20" rx="3" fill="#eaf2fd" transform="rotate(-4)"/>
  </g>

</svg>
