<svg viewBox="0 0 900 900" xmlns="http://www.w3.org/2000/svg">
  <defs>
    <linearGradient id="gold" x1="0" y1="0" x2="0" y2="1">
      <stop offset="0%" stop-color="#f6dfa0"/>
      <stop offset="45%" stop-color="#d9a94c"/>
      <stop offset="100%" stop-color="#9c6f22"/>
    </linearGradient>
    <linearGradient id="goldH" x1="0" y1="0" x2="1" y2="0">
      <stop offset="0%" stop-color="#9c6f22"/>
      <stop offset="50%" stop-color="#f6dfa0"/>
      <stop offset="100%" stop-color="#9c6f22"/>
    </linearGradient>
    <radialGradient id="pivotGrad" cx="35%" cy="30%" r="70%">
      <stop offset="0%" stop-color="#fff2ce"/>
      <stop offset="60%" stop-color="#d9a94c"/>
      <stop offset="100%" stop-color="#8a5f1c"/>
    </radialGradient>
    <radialGradient id="panGrad" cx="50%" cy="15%" r="90%">
      <stop offset="0%" stop-color="#f6dfa0"/>
      <stop offset="55%" stop-color="#c99a44"/>
      <stop offset="100%" stop-color="#8a5f1c"/>
    </radialGradient>
    <radialGradient id="brainGrad" cx="35%" cy="28%" r="80%">
      <stop offset="0%" stop-color="#f7d3c9"/>
      <stop offset="55%" stop-color="#e8a99a"/>
      <stop offset="100%" stop-color="#c67a6c"/>
    </radialGradient>
    <linearGradient id="bookBlue" x1="0" y1="0" x2="0" y2="1">
      <stop offset="0%" stop-color="#3f6fb5"/>
      <stop offset="100%" stop-color="#20355e"/>
    </linearGradient>
    <linearGradient id="bookRed" x1="0" y1="0" x2="0" y2="1">
      <stop offset="0%" stop-color="#c14a5c"/>
      <stop offset="100%" stop-color="#6f2230"/>
    </linearGradient>
    <linearGradient id="bookGreen" x1="0" y1="0" x2="0" y2="1">
      <stop offset="0%" stop-color="#4f9268"/>
      <stop offset="100%" stop-color="#245538"/>
    </linearGradient>
    <linearGradient id="bookMustard" x1="0" y1="0" x2="0" y2="1">
      <stop offset="0%" stop-color="#e3b656"/>
      <stop offset="100%" stop-color="#a67626"/>
    </linearGradient>
    <radialGradient id="shadow" cx="50%" cy="50%" r="50%">
      <stop offset="0%" stop-color="#1a2233" stop-opacity="0.35"/>
      <stop offset="100%" stop-color="#1a2233" stop-opacity="0"/>
    </radialGradient>
    <filter id="soft" x="-50%" y="-50%" width="200%" height="200%">
      <feGaussianBlur stdDeviation="5"/>
    </filter>
    <path id="textCircleTop" d="M 137,450 A 313,313 0 0,1 763,450"/>
  </defs>

  <!-- outer ring -->
  <circle cx="450" cy="450" r="330" fill="none" stroke="#9c6f22" stroke-width="6"/>
  <circle cx="450" cy="450" r="296" fill="none" stroke="#d9a94c" stroke-width="3.5"/>

  <!-- curved title in the ring -->
  <text font-family="Arial, Helvetica, sans-serif" font-size="22" font-weight="700" fill="#9c6f22" letter-spacing="2.5">
    <textPath href="#textCircleTop" startOffset="50%" text-anchor="middle" dy="13">APTO MADRID MUNICIPAL</textPath>
  </text>

  <!-- balance illustration, scaled to fit inside the inner circle -->
  <g transform="translate(450,450) scale(0.72) translate(-400,-362)">

    <!-- ground shadow -->
    <ellipse cx="400" cy="588" rx="150" ry="16" fill="url(#shadow)"/>
    <ellipse cx="170" cy="335" rx="80" ry="14" fill="url(#shadow)" filter="url(#soft)"/>
    <ellipse cx="630" cy="345" rx="95" ry="14" fill="url(#shadow)" filter="url(#soft)"/>

    <!-- base -->
    <path d="M320 580 L480 580 L452 542 L348 542 Z" fill="url(#gold)" stroke="#7a5419" stroke-width="2"/>
    <ellipse cx="400" cy="542" rx="52" ry="9" fill="#e9c374" stroke="#7a5419" stroke-width="2"/>

    <!-- pole -->
    <path d="M392 542 L392 158 Q400 150 408 158 L408 542 Z" fill="url(#gold)" stroke="#7a5419" stroke-width="2"/>

    <!-- pivot ornament -->
    <circle cx="400" cy="148" r="15" fill="url(#pivotGrad)" stroke="#7a5419" stroke-width="2"/>

    <!-- beam -->
    <g>
      <rect x="165" y="128" width="470" height="10" rx="5" fill="url(#goldH)" stroke="#7a5419" stroke-width="1.5"/>
      <path d="M400 148 L400 128" stroke="#7a5419" stroke-width="4"/>
    </g>

    <!-- left chains -->
    <g stroke="#9c6f22" stroke-width="2.5" fill="none">
      <path d="M175 136 L128 268"/>
      <path d="M175 136 L152 268"/>
      <path d="M175 136 L198 268"/>
      <path d="M175 136 L222 268"/>
    </g>
    <circle cx="175" cy="136" r="6" fill="url(#pivotGrad)"/>
    <!-- left pan -->
    <path d="M105 268 Q175 328 245 268 L238 278 Q175 322 112 278 Z" fill="url(#panGrad)" stroke="#7a5419" stroke-width="2"/>
    <ellipse cx="175" cy="270" rx="70" ry="10" fill="none" stroke="#f6dfa0" stroke-width="2" opacity="0.7"/>

    <!-- right chains -->
    <g stroke="#9c6f22" stroke-width="2.5" fill="none">
      <path d="M625 136 L578 268"/>
      <path d="M625 136 L602 268"/>
      <path d="M625 136 L648 268"/>
      <path d="M625 136 L672 268"/>
    </g>
    <circle cx="625" cy="136" r="6" fill="url(#pivotGrad)"/>
    <!-- right pan -->
    <path d="M555 268 Q625 328 695 268 L688 278 Q625 322 562 278 Z" fill="url(#panGrad)" stroke="#7a5419" stroke-width="2"/>
    <ellipse cx="625" cy="270" rx="70" ry="10" fill="none" stroke="#f6dfa0" stroke-width="2" opacity="0.7"/>

    <!-- brain, resting in left pan -->
    <g transform="translate(175,222)">
      <path d="M-58 6
               C-70 -26 -46 -58 -12 -54
               C0 -66 18 -66 28 -54
               C60 -60 84 -30 74 4
               C88 16 86 40 68 48
               C66 64 46 74 28 66
               C16 76 -8 76 -20 66
               C-38 74 -56 62 -56 46
               C-72 36 -72 18 -58 6 Z"
            fill="url(#brainGrad)" stroke="#a85d4f" stroke-width="2.5"/>
      <!-- central fissure -->
      <path d="M6 -58 C4 -30 12 -14 8 4 C4 20 14 34 10 54" fill="none" stroke="#a85d4f" stroke-width="3"/>
      <!-- sulci left hemisphere -->
      <path d="M-38 -40 C-28 -34 -30 -22 -20 -18" fill="none" stroke="#a85d4f" stroke-width="2.5"/>
      <path d="M-48 -14 C-36 -10 -38 2 -26 6" fill="none" stroke="#a85d4f" stroke-width="2.5"/>
      <path d="M-44 20 C-32 22 -32 32 -20 36" fill="none" stroke="#a85d4f" stroke-width="2.5"/>
      <!-- sulci right hemisphere -->
      <path d="M26 -46 C36 -38 34 -26 46 -22" fill="none" stroke="#a85d4f" stroke-width="2.5"/>
      <path d="M32 -16 C44 -12 42 0 54 4" fill="none" stroke="#a85d4f" stroke-width="2.5"/>
      <path d="M28 22 C40 24 38 36 50 40" fill="none" stroke="#a85d4f" stroke-width="2.5"/>
      <!-- highlight -->
      <path d="M-40 -38 C-30 -48 -14 -50 -4 -46" fill="none" stroke="#fbe6df" stroke-width="4" opacity="0.7"/>
    </g>

    <!-- books, stacked in right pan -->
    <g transform="translate(625,205)">
      <g transform="rotate(2)">
        <rect x="-62" y="34" width="124" height="20" rx="2" fill="url(#bookBlue)" stroke="#182642" stroke-width="1.5"/>
        <rect x="55" y="34" width="6" height="20" fill="#e7ddc8"/>
      </g>
      <g transform="rotate(-3)">
        <rect x="-52" y="12" width="106" height="20" rx="2" fill="url(#bookRed)" stroke="#4a1620" stroke-width="1.5"/>
        <rect x="47" y="12" width="6" height="20" fill="#e7ddc8"/>
      </g>
      <g transform="rotate(2.5)">
        <rect x="-46" y="-10" width="94" height="20" rx="2" fill="url(#bookGreen)" stroke="#163a26" stroke-width="1.5"/>
        <rect x="41" y="-10" width="6" height="20" fill="#e7ddc8"/>
      </g>
      <g transform="rotate(-4)">
        <rect x="-38" y="-32" width="78" height="20" rx="2" fill="url(#bookMustard)" stroke="#6e4c17" stroke-width="1.5"/>
        <rect x="33" y="-32" width="6" height="20" fill="#e7ddc8"/>
      </g>
    </g>
  </g>
</svg>
